<svg width="15" height="11" viewBox="0 0 15 11" fill="none" xmlns="http://www.w3.org/2000/svg">
<path id="Vector" d="M7.48824 10.5026C7.23833 10.5032 6.99615 10.3869 6.80372 10.1738L0.38638 3.02619C0.167959 2.78354 0.0306013 2.43486 0.00452583 2.05686C-0.0215497 1.67886 0.0657924 1.30249 0.247337 1.01056C0.428882 0.718626 0.689759 0.535041 0.972578 0.50019C1.2554 0.465338 1.53699 0.582075 1.75541 0.82472L7.48824 7.22898L13.2211 1.05344C13.3305 0.9347 13.4563 0.846025 13.5915 0.792515C13.7266 0.739006 13.8683 0.721717 14.0084 0.741644C14.1486 0.76157 14.2844 0.818317 14.4081 0.908626C14.5318 0.998934 14.6409 1.12102 14.7291 1.26787C14.8271 1.41486 14.9013 1.5873 14.947 1.77438C14.9928 1.96147 15.0092 2.15917 14.9951 2.35511C14.9811 2.55104 14.9369 2.74099 14.8653 2.91304C14.7938 3.08509 14.6965 3.23555 14.5794 3.35498L8.16206 10.2596C7.9641 10.439 7.72686 10.5246 7.48824 10.5026Z" fill="#142309"/>
</svg>
