<svg width="18" height="18" viewBox="0 0 18 18" fill="none" xmlns="http://www.w3.org/2000/svg">
<g id="&#240;&#159;&#166;&#134; icon &#34;pin outline&#34;">
<g id="Group">
<path id="Vector" d="M9.00098 1.50049C7.42002 1.50041 5.90292 2.12431 4.77941 3.23658C3.6559 4.34886 3.01679 5.85961 3.00098 7.44049C3.00098 11.5505 8.28848 16.1255 8.51348 16.3205C8.64933 16.4367 8.82221 16.5005 9.00098 16.5005C9.17974 16.5005 9.35263 16.4367 9.48848 16.3205C9.75098 16.1255 15.001 11.5505 15.001 7.44049C14.9852 5.85961 14.3461 4.34886 13.2225 3.23658C12.099 2.12431 10.5819 1.50041 9.00098 1.50049ZM9.00098 14.738C7.74848 13.5455 4.50098 10.238 4.50098 7.44049C4.50098 6.24701 4.97508 5.10242 5.819 4.25851C6.66291 3.41459 7.8075 2.94049 9.00098 2.94049C10.1945 2.94049 11.339 3.41459 12.183 4.25851C13.0269 5.10242 13.501 6.24701 13.501 7.44049C13.501 10.2155 10.2535 13.5455 9.00098 14.738Z" fill="#62AF2F"/>
<path id="Vector_2" d="M9.1709 4.90967C8.65172 4.90967 8.14421 5.06362 7.71253 5.35206C7.28085 5.6405 6.9444 6.05047 6.74572 6.53012C6.54704 7.00978 6.49505 7.53758 6.59634 8.04678C6.69762 8.55598 6.94763 9.02371 7.31474 9.39082C7.68186 9.75794 8.14959 10.0079 8.65879 10.1092C9.16799 10.2105 9.69579 10.1585 10.1754 9.95985C10.6551 9.76117 11.0651 9.42472 11.3535 8.99304C11.6419 8.56136 11.7959 8.05384 11.7959 7.53467C11.7959 6.83847 11.5193 6.1708 11.0271 5.67851C10.5348 5.18623 9.86709 4.90967 9.1709 4.90967ZM9.1709 8.65967C8.9484 8.65967 8.73089 8.59369 8.54588 8.47007C8.36088 8.34645 8.21668 8.17075 8.13154 7.96519C8.04639 7.75962 8.02411 7.53342 8.06752 7.31519C8.11092 7.09696 8.21807 6.89651 8.3754 6.73917C8.53274 6.58184 8.73319 6.47469 8.95142 6.43128C9.16965 6.38788 9.39585 6.41015 9.60142 6.4953C9.80699 6.58045 9.98269 6.72465 10.1063 6.90965C10.2299 7.09466 10.2959 7.31216 10.2959 7.53467C10.2959 7.83304 10.1774 8.11918 9.9664 8.33016C9.75542 8.54114 9.46927 8.65967 9.1709 8.65967Z" fill="#62AF2F"/>
</g>
</g>
</svg>
