<svg width="21" height="11" viewBox="0 0 21 11" fill="none" xmlns="http://www.w3.org/2000/svg">
<path d="M10.8458 10.7182C10.5118 10.7188 10.1881 10.6025 9.93095 10.3894L1.35382 3.24176C1.06189 2.99912 0.878303 2.65044 0.843451 2.27244C0.8086 1.89443 0.925338 1.51807 1.16798 1.22613C1.41063 0.934202 1.7593 0.750617 2.13731 0.715766C2.51531 0.680914 2.89168 0.797651 3.18361 1.0403L10.8458 7.44456L18.5081 1.26902C18.6543 1.15028 18.8226 1.0616 19.0032 1.00809C19.1838 0.954582 19.3732 0.937293 19.5605 0.95722C19.7478 0.977146 19.9293 1.03389 20.0946 1.1242C20.2599 1.21451 20.4058 1.3366 20.5237 1.48345C20.6546 1.63043 20.7538 1.80287 20.815 1.98996C20.8761 2.17705 20.898 2.37475 20.8792 2.57069C20.8604 2.76662 20.8014 2.95656 20.7058 3.12862C20.6102 3.30067 20.48 3.45112 20.3236 3.57055L11.7464 10.4751C11.4819 10.6546 11.1648 10.7401 10.8458 10.7182Z" fill="#142309"/>
</svg>
