<svg width="130" height="39" viewBox="0 0 396 117" fill="none" xmlns="http://www.w3.org/2000/svg">
<path fill-rule="evenodd" clip-rule="evenodd" d="M368.262 94.0243V43.0945C388.634 47.7957 395.032 31.9944 395.685 23.5061C373.781 26.6352 368.279 37.8351 368.262 43.0694V23.5061H348.673V94.0243H368.262ZM374.691 40.1092C374.033 40.6873 373.368 41.2702 372.68 41.865C378.056 39.1768 387.85 31.3414 393.226 26.6939C383.414 32.4546 379.179 36.1709 374.691 40.1092Z" fill="#62AF2F"/>
<path fill-rule="evenodd" clip-rule="evenodd" d="M0 0V91.175H38.9542C45.7804 91.175 51.5234 90.0769 56.1831 87.8806C60.8427 85.6844 64.3597 82.7016 66.7341 78.9323C69.1381 75.1333 70.3401 70.815 70.3401 65.9773C70.3401 61.4957 69.3904 57.6373 67.4909 54.4023C65.5914 51.1376 63.1132 48.6 60.0562 46.7895C57.0289 44.9791 53.779 43.9997 50.3065 43.8513V42.9609C53.4822 42.2486 56.3018 41.0466 58.7652 39.3549C61.2582 37.6334 63.2171 35.4372 64.6417 32.766C66.0663 30.0652 66.7786 26.934 66.7786 23.3725C66.7786 18.8019 65.6508 14.7655 63.3951 11.2633C61.1395 7.73148 57.7709 4.9713 53.2893 2.98278C48.8077 0.99426 43.2132 0 36.5056 0H0ZM34.992 75.4153H19.2768V51.1969H35.4372C38.5238 51.1969 41.1801 51.746 43.4061 52.8441C45.6617 53.9423 47.398 55.4559 48.6148 57.3851C49.8317 59.3142 50.4401 61.5402 50.4401 64.0629C50.4401 67.5057 49.2084 70.2659 46.745 72.3435C44.2816 74.3914 40.364 75.4153 34.992 75.4153ZM33.5674 38.1528H19.2768V15.5817H33.9235C38.1974 15.5817 41.4918 16.5908 43.8068 18.609C46.1514 20.6272 47.3238 23.2835 47.3238 26.5779C47.3238 28.9819 46.7153 31.0446 45.4985 32.766C44.3113 34.4874 42.6789 35.823 40.6014 36.7727C38.5535 37.6928 36.2088 38.1528 33.5674 38.1528ZM82.5272 22.7938V91.175H101.492V52.488C101.492 49.6981 102.116 47.2347 103.362 45.0978C104.638 42.9609 106.36 41.2989 108.526 40.1117C110.723 38.8948 113.216 38.2864 116.006 38.2864C117.311 38.2864 118.751 38.3903 120.324 38.598C121.897 38.8058 123.129 39.0432 124.019 39.3103V22.4821C123.188 22.2744 122.223 22.1111 121.125 21.9924C120.027 21.8737 119.003 21.8143 118.053 21.8143C114.225 21.8143 110.841 22.9125 107.903 25.1088C104.965 27.2753 102.872 30.4807 101.626 34.7249H100.914V22.7938H82.5272ZM161.537 92.5106C154.622 92.5106 148.642 91.0415 143.596 88.1032C138.58 85.1353 134.707 81.0099 131.977 75.7269C129.246 70.4143 127.881 64.2559 127.881 57.2515C127.881 50.1878 129.246 44.0145 131.977 38.7316C134.707 33.419 138.58 29.2935 143.596 26.3553C148.642 23.3874 154.622 21.9034 161.537 21.9034C168.453 21.9034 174.418 23.3874 179.434 26.3553C184.48 29.2935 188.368 33.419 191.098 38.7316C193.829 44.0145 195.194 50.1878 195.194 57.2515C195.194 64.2559 193.829 70.4143 191.098 75.7269C188.368 81.0099 184.48 85.1353 179.434 88.1032C174.418 91.0415 168.453 92.5106 161.537 92.5106ZM210.264 116.239C212.371 116.625 214.626 116.818 217.03 116.818C221.72 116.818 225.726 116.061 229.051 114.548C232.375 113.064 235.12 110.942 237.287 108.181C239.483 105.451 241.219 102.245 242.495 98.5652L269.073 22.7938H248.995L234.705 73.0113H233.992L219.835 22.7938H199.891L224.421 93.1339L223.308 96.0276C222.477 98.1645 221.393 99.6782 220.058 100.569C218.752 101.459 217.194 101.874 215.383 101.815C213.602 101.756 211.599 101.385 209.373 100.702L205.099 114.859C206.465 115.423 208.186 115.883 210.264 116.239ZM322.63 62.0596V22.7938H341.595V91.175H323.386V78.7542H322.674C321.131 82.7609 318.564 85.9812 314.972 88.4149C311.411 90.8486 307.063 92.0654 301.928 92.0654C297.358 92.0654 293.336 91.0266 289.864 88.9491C286.391 86.8715 283.675 83.9184 281.717 80.0898C279.787 76.2612 278.808 71.6757 278.778 66.3334V22.7938H297.743V62.95C297.773 66.9864 298.856 70.1769 300.993 72.5216C303.13 74.8662 305.994 76.0386 309.586 76.0386C311.871 76.0386 314.008 75.5192 315.996 74.4804C317.985 73.4119 319.587 71.8389 320.804 69.7614C322.051 67.6838 322.659 65.1166 322.63 62.0596ZM180.636 44.7767C181.317 45.16 181.883 45.7057 182.278 46.3606C182.666 46.9799 182.888 47.6815 182.924 48.4028C182.959 49.1242 182.808 49.8428 182.483 50.4946L174.988 64.8433C174.798 65.204 174.507 65.5073 174.148 65.7197C173.789 65.932 173.376 66.0451 172.954 66.0463H152.386C151.87 66.0632 151.363 65.9124 150.948 65.6185C150.533 65.3246 150.234 64.9049 150.1 64.4277L143.793 41.986H140.959C140.353 41.986 139.772 41.7555 139.343 41.3453C138.915 40.9351 138.674 40.3788 138.674 39.7987C138.674 39.2186 138.915 38.6622 139.343 38.252C139.772 37.8418 140.353 37.6114 140.959 37.6114H145.53C146.046 37.5945 146.553 37.7452 146.967 38.0391C147.382 38.3331 147.681 38.7528 147.815 39.23L149.141 44.1733H178.393C179.182 44.1855 179.956 44.3933 180.636 44.7767ZM153.769 73.9942C153.769 75.8063 152.234 77.2752 150.341 77.2752C148.448 77.2752 146.913 75.8063 146.913 73.9942C146.913 72.1822 148.448 70.7133 150.341 70.7133C152.234 70.7133 153.769 72.1822 153.769 73.9942ZM173.195 77.2752C175.088 77.2752 176.623 75.8063 176.623 73.9942C176.623 72.1822 175.088 70.7133 173.195 70.7133C171.302 70.7133 169.767 72.1822 169.767 73.9942C169.767 75.8063 171.302 77.2752 173.195 77.2752Z" fill="#62AF2F"/>
</svg>
