<svg width="88" height="84" viewBox="0 0 88 84" fill="none" xmlns="http://www.w3.org/2000/svg">
<g id="Group 171">
<ellipse id="Ellipse 142" cx="43.882" cy="42" rx="43.882" ry="42" fill="#F5D151"/>
<g id="&#240;&#159;&#166;&#134; icon &#34;shopping cart outline&#34;">
<g id="Group">
<path id="Vector" d="M64.7358 31.3756C64.3578 30.7488 63.8166 30.2265 63.1649 29.8596C62.5131 29.4927 61.7732 29.2937 61.0172 29.282H33.0183L31.7496 24.5505C31.6215 24.0937 31.3355 23.692 30.9383 23.4107C30.5411 23.1294 30.0561 22.985 29.5622 23.0012H25.1874C24.6073 23.0012 24.0509 23.2218 23.6407 23.6144C23.2305 24.0071 23 24.5396 23 25.0948C23 25.6501 23.2305 26.1826 23.6407 26.5752C24.0509 26.9678 24.6073 27.1884 25.1874 27.1884H27.8998L33.937 48.6687C34.0652 49.1255 34.3512 49.5272 34.7484 49.8085C35.1456 50.0899 35.6306 50.2342 36.1245 50.218H55.8111C56.2151 50.2168 56.6108 50.1086 56.9544 49.9054C57.298 49.7021 57.5762 49.4118 57.7579 49.0665L64.9326 35.3325C65.2436 34.7087 65.3884 34.0208 65.354 33.3304C65.3197 32.6399 65.1073 31.9684 64.7358 31.3756ZM54.4549 46.0308H37.7869L34.2214 33.4692H61.0172L54.4549 46.0308Z" fill="white"/>
<path id="Vector_2" d="M34.1669 60.9654C35.979 60.9654 37.448 59.5594 37.448 57.825C37.448 56.0906 35.979 54.6846 34.1669 54.6846C32.3547 54.6846 30.8857 56.0906 30.8857 57.825C30.8857 59.5594 32.3547 60.9654 34.1669 60.9654Z" fill="white"/>
<path id="Vector_3" d="M56.0414 60.9654C57.8535 60.9654 59.3225 59.5594 59.3225 57.825C59.3225 56.0906 57.8535 54.6846 56.0414 54.6846C54.2293 54.6846 52.7603 56.0906 52.7603 57.825C52.7603 59.5594 54.2293 60.9654 56.0414 60.9654Z" fill="white"/>
</g>
</g>
</g>
</svg>
