<svg width="19" height="16" viewBox="0 0 19 16" fill="none" xmlns="http://www.w3.org/2000/svg">
<path d="M18.1134 14.075L14.7607 11.25C15.8424 10.0854 16.4294 8.64722 16.4272 7.16667C16.4272 5.84813 15.9645 4.5592 15.0977 3.46287C14.2308 2.36654 12.9988 1.51206 11.5573 1.00747C10.1157 0.502889 8.52956 0.370866 6.99926 0.628101C5.46897 0.885336 4.0633 1.52027 2.96002 2.45262C1.85674 3.38497 1.10539 4.57286 0.801 5.86607C0.496606 7.15927 0.652832 8.49972 1.24992 9.71789C1.84701 10.9361 2.85815 11.9773 4.15547 12.7098C5.4528 13.4423 6.97803 13.8333 8.53831 13.8333C10.2903 13.8352 11.9921 13.3392 13.3703 12.425L16.7132 15.2583C16.8048 15.3364 16.9139 15.3984 17.0341 15.4407C17.1542 15.4831 17.2831 15.5048 17.4133 15.5048C17.5435 15.5048 17.6724 15.4831 17.7925 15.4407C17.9127 15.3984 18.0218 15.3364 18.1134 15.2583C18.2059 15.1809 18.2792 15.0887 18.3293 14.9872C18.3794 14.8856 18.4051 14.7767 18.4051 14.6667C18.4051 14.5567 18.3794 14.4477 18.3293 14.3462C18.2792 14.2446 18.2059 14.1525 18.1134 14.075ZM2.62164 7.16667C2.62164 6.17776 2.96865 5.21106 3.61878 4.38882C4.26891 3.56657 5.19297 2.92571 6.2741 2.54727C7.35523 2.16883 8.54487 2.06982 9.69259 2.26274C10.8403 2.45567 11.8946 2.93187 12.722 3.63114C13.5495 4.3304 14.113 5.22131 14.3413 6.19122C14.5696 7.16112 14.4524 8.16646 14.0046 9.08009C13.5568 9.99372 12.7984 10.7746 11.8254 11.324C10.8524 11.8734 9.70851 12.1667 8.53831 12.1667C6.96911 12.1667 5.46418 11.6399 4.35459 10.7022C3.245 9.76452 2.62164 8.49275 2.62164 7.16667Z" fill="#CCCCCC"/>
</svg>
