<svg width="22" height="22" viewBox="0 0 22 22" fill="none" xmlns="http://www.w3.org/2000/svg">
<g id="&#240;&#159;&#166;&#134; icon &#34;pin outline&#34;">
<g id="Group">
<path id="Vector" d="M10.9998 1.8335C9.06756 1.8334 7.21332 2.59594 5.84014 3.95539C4.46697 5.31483 3.68583 7.16131 3.6665 9.0935C3.6665 14.1168 10.129 19.7085 10.404 19.9468C10.57 20.0888 10.7813 20.1669 10.9998 20.1669C11.2183 20.1669 11.4296 20.0888 11.5957 19.9468C11.9165 19.7085 18.3332 14.1168 18.3332 9.0935C18.3138 7.16131 17.5327 5.31483 16.1595 3.95539C14.7864 2.59594 12.9321 1.8334 10.9998 1.8335ZM10.9998 18.0127C9.469 16.5552 5.49984 12.5127 5.49984 9.0935C5.49984 7.63481 6.0793 6.23586 7.11075 5.20441C8.1422 4.17296 9.54115 3.5935 10.9998 3.5935C12.4585 3.5935 13.8575 4.17296 14.8889 5.20441C15.9204 6.23586 16.4998 7.63481 16.4998 9.0935C16.4998 12.4852 12.5307 16.5552 10.9998 18.0127Z" fill="#62AF2F"/>
<path id="Vector_2" d="M11.2083 6C10.5738 6 9.95349 6.18817 9.42588 6.5407C8.89827 6.89324 8.48705 7.39431 8.24422 7.98056C8.00139 8.5668 7.93785 9.21189 8.06165 9.83425C8.18544 10.4566 8.49101 11.0283 8.9397 11.477C9.38839 11.9257 9.96006 12.2312 10.5824 12.355C11.2048 12.4788 11.8499 12.4153 12.4361 12.1724C13.0224 11.9296 13.5234 11.5184 13.876 10.9908C14.2285 10.4632 14.4167 9.84288 14.4167 9.20833C14.4167 8.35743 14.0786 7.54138 13.477 6.9397C12.8753 6.33802 12.0592 6 11.2083 6ZM11.2083 10.5833C10.9364 10.5833 10.6705 10.5027 10.4444 10.3516C10.2183 10.2005 10.0421 9.98577 9.938 9.73452C9.83393 9.48327 9.8067 9.20681 9.85976 8.94008C9.91281 8.67336 10.0438 8.42836 10.2361 8.23606C10.4284 8.04376 10.6734 7.91281 10.9401 7.85975C11.2068 7.8067 11.4833 7.83393 11.7345 7.938C11.9858 8.04207 12.2005 8.21831 12.3516 8.44442C12.5027 8.67054 12.5833 8.93638 12.5833 9.20833C12.5833 9.57301 12.4385 9.92274 12.1806 10.1806C11.9227 10.4385 11.573 10.5833 11.2083 10.5833Z" fill="#62AF2F"/>
</g>
</g>
</svg>
