<svg width="88" height="84" viewBox="0 0 88 84" fill="none" xmlns="http://www.w3.org/2000/svg">
<g id="Group 171">
<ellipse id="Ellipse 142" cx="44.0721" cy="42" rx="43.7386" ry="42" fill="#F5D151"/>
<g id="&#240;&#159;&#166;&#134; icon &#34;smiling face&#34;">
<g id="Group 175">
<path id="Vector" d="M44.0717 21.1665C56.0539 21.1665 65.7674 30.4939 65.7674 41.9998C65.7674 53.5058 56.0539 62.8332 44.0717 62.8332C32.0895 62.8332 22.376 53.5058 22.376 41.9998C22.376 30.4939 32.0895 21.1665 44.0717 21.1665ZM44.0717 25.3332C34.4859 25.3332 26.7151 32.7951 26.7151 41.9998C26.7151 51.2046 34.4859 58.6665 44.0717 58.6665C53.6575 58.6665 61.4283 51.2046 61.4283 41.9998C61.4283 32.7951 53.6575 25.3332 44.0717 25.3332ZM54.9195 44.0832C54.9195 49.8361 50.0628 54.4998 44.0717 54.4998C38.0806 54.4998 33.2238 49.8361 33.2238 44.0832H54.9195Z" fill="#F5F5F5"/>
<circle id="Ellipse 145" cx="52.5" cy="37.5" r="2.5" fill="#F5F5F5"/>
<circle id="Ellipse 146" cx="36.5" cy="37.5" r="2.5" fill="#F5F5F5"/>
</g>
</g>
</g>
</svg>
