<svg width="89" height="84" viewBox="0 0 89 84" fill="none" xmlns="http://www.w3.org/2000/svg">
<g id="Group 171">
<ellipse id="Ellipse 142" cx="44.4051" cy="42" rx="43.7386" ry="42" fill="#F5D151"/>
<path id="Union" fill-rule="evenodd" clip-rule="evenodd" d="M54.7488 23.6961C54.5681 21.7799 55.3251 19.2327 57.9435 16C60.0473 18.6418 63.1168 24.3553 59.808 27.3854C59.8527 27.4288 59.8973 27.4724 59.9416 27.5162C62.5663 26.3747 67.2999 25.633 70.9609 29.5C69.6841 30.726 66.7355 32.3128 63.11 31.4739C65.1196 34.6978 66.2746 38.4694 66.2746 42.5C66.2746 54.3741 56.2503 64 43.8846 64C31.519 64 21.4946 54.3741 21.4946 42.5C21.4946 30.6259 31.519 21 43.8846 21C47.827 21 51.5313 21.9784 54.7488 23.6961ZM43.8846 59C53.6819 59 61.2746 51.4235 61.2746 42.5C61.2746 33.5765 53.6819 26 43.8846 26C34.0873 26 26.4946 33.5765 26.4946 42.5C26.4946 51.4235 34.0873 59 43.8846 59ZM54.8193 36C54.8193 37.6569 53.4205 39 51.6951 39C49.9696 39 48.5709 37.6569 48.5709 36C48.5709 34.3431 49.9696 33 51.6951 33C53.4205 33 54.8193 34.3431 54.8193 36Z" fill="#F5F5F5"/>
</g>
</svg>
