<svg width="35" height="36" viewBox="0 0 35 36" fill="none" xmlns="http://www.w3.org/2000/svg">
<path d="M30.7415 10.7087C30.4895 10.2721 30.1287 9.90827 29.6942 9.65268C29.2597 9.39709 28.7664 9.25848 28.2623 9.25037H9.59567L8.74984 5.95453C8.66438 5.63638 8.47372 5.35654 8.20891 5.16058C7.9441 4.96462 7.62074 4.86409 7.2915 4.87537H4.37484C3.98806 4.87537 3.61713 5.02901 3.34364 5.3025C3.07015 5.57599 2.9165 5.94693 2.9165 6.3337C2.9165 6.72047 3.07015 7.09141 3.34364 7.3649C3.61713 7.63839 3.98806 7.79203 4.37484 7.79203H6.18317L10.2082 22.7545C10.2936 23.0727 10.4843 23.3525 10.7491 23.5485C11.0139 23.7444 11.3373 23.845 11.6665 23.8337H24.7915C25.0608 23.8329 25.3246 23.7575 25.5537 23.6159C25.7828 23.4744 25.9682 23.2721 26.0894 23.0316L30.8728 13.465C31.0801 13.0304 31.1766 12.5513 31.1537 12.0703C31.1308 11.5894 30.9892 11.1216 30.7415 10.7087ZM23.8873 20.917H12.7748L10.3978 12.167H28.2623L23.8873 20.917Z" fill="#62AF2F"/>
<path d="M10.9375 31.125C12.1456 31.125 13.125 30.1456 13.125 28.9375C13.125 27.7294 12.1456 26.75 10.9375 26.75C9.72938 26.75 8.75 27.7294 8.75 28.9375C8.75 30.1456 9.72938 31.125 10.9375 31.125Z" fill="#62AF2F"/>
<path d="M25.5205 31.125C26.7286 31.125 27.708 30.1456 27.708 28.9375C27.708 27.7294 26.7286 26.75 25.5205 26.75C24.3124 26.75 23.333 27.7294 23.333 28.9375C23.333 30.1456 24.3124 31.125 25.5205 31.125Z" fill="#62AF2F"/>
</svg>
